<svg viewBox="0 0 500 122.365" height="122.365" width="500" xmlns:xlink="http://www.w3.org/1999/xlink" xmlns="http://www.w3.org/2000/svg">
  <defs>
    <clipPath id="clip-Amazon">
      <rect height="122.365" width="500"></rect>
    </clipPath>
  </defs>
  <g clip-path="url(#clip-Amazon)" id="Amazon">
    <rect fill="#fff" height="122.365" width="500"></rect>
    <g transform="translate(-516.255 -139.404)" data-name="Group 5" id="Group_5">
      <path d="M665.334,158.495c.132-.291.272-.578.4-.872a17.539,17.539,0,0,1,2.413-4.111,13.364,13.364,0,0,1,9.641-5.082,17.214,17.214,0,0,1,6.027.42,12.827,12.827,0,0,1,7.511,5.566c.679,1.017,1.226,2.121,1.828,3.188.147.263.272.538.465.923.187-.387.328-.669.462-.956,2.688-5.761,7.244-8.788,13.553-9.183a15.754,15.754,0,0,1,9.8,2.529,13.213,13.213,0,0,1,6.093,9.83,47.458,47.458,0,0,1,.376,5.958q.015,19.732-.052,39.465c0,.276.011.553-.005.828a2.074,2.074,0,0,1-2.11,2.1c-.367.019-.736,0-1.1,0-3.036,0-6.071,0-9.107-.005a4.07,4.07,0,0,1-1.087-.122A1.911,1.911,0,0,1,709,207.16c-.023-.428-.009-.858-.009-1.288.007-11.284.029-22.569.006-33.854,0-1.648-.215-3.3-.347-4.943a3.944,3.944,0,0,0-.2-.8,5.231,5.231,0,0,0-4.641-3.876,7.221,7.221,0,0,0-8.4,6.022,35.471,35.471,0,0,0-.527,5.388c-.066,6.378-.033,12.756-.036,19.135q0,6.854,0,13.707a2.468,2.468,0,0,1-.447,1.647,2.312,2.312,0,0,1-1.965.8c-2.514-.006-5.029,0-7.543,0-.828,0-1.656.005-2.484,0a2.137,2.137,0,0,1-2.443-2.415q-.014-6.854-.01-13.707,0-10.671.008-21.343a17.4,17.4,0,0,0-.593-4.638c-1.064-3.847-3.649-5.2-7.371-4.711a6,6,0,0,0-4.954,4.024,15.674,15.674,0,0,0-1.073,5.107q-.154,2.706-.162,5.422-.021,14.765,0,29.53c0,2.1-.643,2.733-2.754,2.733q-4.737,0-9.475,0a4.807,4.807,0,0,1-1.005-.072,1.962,1.962,0,0,1-1.606-1.779,8.04,8.04,0,0,1-.025-.919q0-26.954,0-53.909c0-.306-.01-.615.016-.919a2.042,2.042,0,0,1,2.027-1.979c.214-.014.43-.007.644-.007h8.832c.153,0,.306,0,.46,0a2.017,2.017,0,0,1,2.2,2.174c.027,1.962.008,3.925.009,5.888v.874Z" data-name="Path 21" id="Path_21"></path>
      <path d="M767.387,202.024c-1.08.982-2.048,1.871-3.026,2.75a19.973,19.973,0,0,1-13.369,5.074,22.053,22.053,0,0,1-6.74-.692,13.981,13.981,0,0,1-10.02-9.754,21.041,21.041,0,0,1,.138-13.209,18.034,18.034,0,0,1,10.355-10.954,35.03,35.03,0,0,1,9.475-2.525c3.125-.438,6.266-.757,9.4-1.129l1.43-.172c.058-.086.121-.135.123-.186a31.567,31.567,0,0,0-.175-6.146,6.261,6.261,0,0,0-5.337-5.56,9.788,9.788,0,0,0-6.279.781,7.584,7.584,0,0,0-4.2,5.286,4.912,4.912,0,0,1-.425,1.2,1.8,1.8,0,0,1-1.9,1c-3.26-.359-6.523-.68-9.781-1.049-1.594-.181-2.223-1.165-1.865-2.815a18.456,18.456,0,0,1,10.929-13.553,29.262,29.262,0,0,1,9.859-2.428,31.084,31.084,0,0,1,13.93,1.743,18.248,18.248,0,0,1,4.575,2.519,14.1,14.1,0,0,1,5.526,9.63,42.258,42.258,0,0,1,.387,5.5q.064,10.533,0,21.064a13.727,13.727,0,0,0,2.837,8.743c.391.51.779,1.026,1.138,1.56a4.328,4.328,0,0,1,.558,1.047,1.738,1.738,0,0,1-.484,2.008q-4.066,3.523-8.125,7.056a2.366,2.366,0,0,1-3.313-.062,25.4,25.4,0,0,1-4.551-5.152C768.133,203.09,767.778,202.6,767.387,202.024Zm-2.2-21.926c-1.162.051-2.2.075-3.228.147a21.3,21.3,0,0,0-6.883,1.481,8.836,8.836,0,0,0-4.285,3.341,10.551,10.551,0,0,0-.577,10.684,5.512,5.512,0,0,0,4.87,3.122,7.682,7.682,0,0,0,6.087-2.286,11.992,11.992,0,0,0,3.205-5.39,19.011,19.011,0,0,0,.647-3.233A70.554,70.554,0,0,0,765.185,180.1Z" data-name="Path 22" id="Path_22"></path>
      <path d="M623.181,171.4c0-1.578.029-3.1-.013-4.629a12.3,12.3,0,0,0-.273-2.185,5.986,5.986,0,0,0-4.312-4.8,9.556,9.556,0,0,0-7.889.9,7.312,7.312,0,0,0-3.433,4.593,8.953,8.953,0,0,1-.4,1.314,1.815,1.815,0,0,1-2.049,1.192c-3.231-.33-6.462-.662-9.69-1.023-1.635-.183-2.264-1.141-1.924-2.764a18.415,18.415,0,0,1,6-10.5,20.729,20.729,0,0,1,7.885-4.219,33.231,33.231,0,0,1,19.913.086,17.725,17.725,0,0,1,6.16,3.4A14.455,14.455,0,0,1,638,161.6a38.864,38.864,0,0,1,.426,6.6c.006,6.683.034,13.367-.022,20.049a13.84,13.84,0,0,0,2.97,9.066c.419.527.811,1.078,1.183,1.64a2.046,2.046,0,0,1-.442,3.126q-3.618,3.126-7.223,6.268c-.208.181-.412.368-.632.534a2.244,2.244,0,0,1-3.158-.081,22.587,22.587,0,0,1-4.422-4.9c-.4-.613-.831-1.208-1.3-1.891-.287.267-.521.5-.767.711-1.2,1.05-2.354,2.154-3.607,3.133a17.784,17.784,0,0,1-8.7,3.681,25.826,25.826,0,0,1-8.419-.013c-6.312-1.219-10.332-4.929-11.936-11.167a21.163,21.163,0,0,1,.147-11.266,17.993,17.993,0,0,1,10.2-11.651,30.82,30.82,0,0,1,8.8-2.536c3.516-.509,7.051-.886,10.578-1.32Zm-.1,8.784c-3.5-.123-7.7.371-10.506,1.794a12.266,12.266,0,0,0-2.715,1.855c-3.381,3.092-3.4,9.245-1.469,12.269a5.774,5.774,0,0,0,4.445,2.752,7.47,7.47,0,0,0,5.659-1.681,12.1,12.1,0,0,0,4.183-7.058,40.125,40.125,0,0,0,.5-9.792C623.179,180.295,623.148,180.271,623.086,180.181Z" data-name="Path 23" id="Path_23"></path>
      <path d="M911.062,159.416c.347-.749.683-1.5,1.042-2.244a18.81,18.81,0,0,1,3.043-4.581,12.311,12.311,0,0,1,6.753-3.852,17.69,17.69,0,0,1,8.2.126,13.436,13.436,0,0,1,10.01,10.023,35.633,35.633,0,0,1,1.091,8.37c.05,1.44.045,2.882.045,4.323q0,17.342,0,34.681c0,.276.007.553,0,.828a1.931,1.931,0,0,1-1.624,1.94,4.492,4.492,0,0,1-.914.068c-3.311,0-6.623.012-9.935-.006a3.36,3.36,0,0,1-1.244-.238,1.768,1.768,0,0,1-1.122-1.561c-.031-.335-.02-.674-.019-1.011q0-16.007.011-32.013a29.769,29.769,0,0,0-.452-6.317,13.854,13.854,0,0,0-.662-2.2,5.675,5.675,0,0,0-6.421-3.625,6.907,6.907,0,0,0-5.414,4.227,17.627,17.627,0,0,0-1.65,6.562c-.122,1.8-.166,3.613-.169,5.421q-.024,13.66-.007,27.322c0,.429.007.859-.005,1.288a1.97,1.97,0,0,1-1.964,2.12q-5.472.076-10.945,0a1.967,1.967,0,0,1-1.927-1.975c-.022-.274-.01-.551-.01-.827q-.012-27-.021-54c0-.214-.006-.429,0-.644a2.042,2.042,0,0,1,2.091-2.1c.581-.027,1.165-.007,1.747-.007h7.544c.245,0,.491,0,.736.005a2.073,2.073,0,0,1,1.986,2.1c-.07,2.236-.022,4.476-.022,6.715V159.4Z" data-name="Path 24" id="Path_24"></path>
      <path d="M839.4,179.146a44.069,44.069,0,0,1,3.029-15.82,24.779,24.779,0,0,1,8.29-10.915,20.887,20.887,0,0,1,9.734-3.829,24.609,24.609,0,0,1,11.257.995,22.118,22.118,0,0,1,11.94,9.862,34.4,34.4,0,0,1,4.384,12.306,46.388,46.388,0,0,1,.537,11.088A33.681,33.681,0,0,1,882.71,200.4a22,22,0,0,1-14.921,9.531c-9.176,1.441-17.951-1.86-23.286-10.693a33.817,33.817,0,0,1-4.452-13.045C839.73,183.855,839.613,181.495,839.4,179.146Zm16.111-.77c0,.429-.007.858,0,1.287A56.744,56.744,0,0,0,856.4,190a15.827,15.827,0,0,0,2.255,5.88,6.331,6.331,0,0,0,3.176,2.538,6.889,6.889,0,0,0,7.769-2.5,12.7,12.7,0,0,0,1.914-4.151,32.853,32.853,0,0,0,1.09-7.715,77.96,77.96,0,0,0-.574-14.766,19.547,19.547,0,0,0-1.658-5.9,6,6,0,0,0-3.082-3.026c-2.748-1.125-7.1-1.187-9.426,3.1a17.85,17.85,0,0,0-1.83,5.845A56.669,56.669,0,0,0,855.515,178.376Z" data-name="Path 25" id="Path_25"></path>
      <path d="M747.124,252.552c-1.459.157-2.914.357-4.376.461-1.709.122-3.423.172-5.136.232-1.828.063-3.657.114-5.487.142a10.365,10.365,0,0,1-1.264-.158c-.362-.039-.726-.079-1.089-.083-1.527-.018-3.055,0-4.58-.043-1.192-.037-2.384-.128-3.571-.242-2.495-.24-5-.431-7.478-.788-3.023-.437-6.034-.98-9.035-1.556-3.575-.686-7.1-1.585-10.6-2.6a134.911,134.911,0,0,1-14.766-5.236c-.534-.226-.531-.233-.693-.546a16.344,16.344,0,0,1-1.977-.635c-2.548-1.2-5.076-2.437-7.612-3.659-.275-.132-.558-.248-.838-.371l.3-.3-.146-.085-.109.412c-1.486-.854-2.979-1.7-4.452-2.572a5.155,5.155,0,0,1-.8-.749,4.451,4.451,0,0,1-1.081-.376c-3.326-2.188-6.666-4.358-9.938-6.625-1.836-1.271-3.553-2.714-5.323-4.081-.485-.375-.987-.739-1.084-1.277a6.477,6.477,0,0,1-1.176-.613q-1.691-1.416-3.312-2.912a2.967,2.967,0,0,1-.7-1.054,1.281,1.281,0,0,1,1.139-1.779,2.5,2.5,0,0,1,1.488.364q4.105,2.259,8.227,4.489c.429.232.891.4,1.337.6-.244.05-.549,0-.636.425.428.083.574-.1.593-.456,1.7.842,3.381,1.725,5.1,2.521a179.823,179.823,0,0,0,25.558,9.491,187.192,187.192,0,0,0,18.945,4.419c2.5.448,5.016.783,7.524,1.173a1.311,1.311,0,0,1,.257.1l-.366.163.1.113.248-.3c1.854.213,3.705.45,5.562.632,2.157.212,4.319.384,6.479.559a22.078,22.078,0,0,1,2.924.221,7.347,7.347,0,0,0,2.287.148c.791-.072,1.592-.016,2.386-.016.056.289.138.588.485.43a7.274,7.274,0,0,1,2.992-.26c2.389-.058,4.779-.178,7.165-.13,1.863.038,3.706-.164,5.557-.245,1.893-.083,3.779-.325,5.669-.482.912-.076,1.829-.1,2.74-.182.542-.05,1.075-.185,1.615-.253,6.165-.77,12.286-1.8,18.345-3.178,5.672-1.284,11.279-2.814,16.807-4.634,4.657-1.532,9.249-3.23,13.764-5.138a4.05,4.05,0,0,1,2.224-.439,3.653,3.653,0,0,1,1.368.465,2.306,2.306,0,0,1,.344,3.65,6.2,6.2,0,0,1-.968.845,94.911,94.911,0,0,1-11.024,6.966,118.305,118.305,0,0,1-16.394,7.32c-.724.258-1.454.491-2.167.785a20.98,20.98,0,0,1-2.262.756,7.34,7.34,0,0,1-1.173.14c-.1.089-.241.32-.437.382-1.312.412-2.635.789-3.941,1.172-.461-.517-.444-.506-.8.029a.891.891,0,0,1-.5.318c-2.674.657-5.338,1.361-8.034,1.914-1.2.247-2.4.565-3.618.732s-2.409.44-3.621.608c-2.328.322-4.661.6-6.992.9l-.256-.4-.126.146ZM734,253.208c-.822-.357-.841-.357-1.363,0Zm-9.8-12.895a1.232,1.232,0,0,0-.344-.155c-.05,0-.11.109-.165.17a.978.978,0,0,0,.263.178C723.99,240.519,724.068,240.414,724.192,240.313Zm-15.359,10.511-.125.1c.043.032.086.089.128.089s.084-.058.126-.091Z" data-name="Path 26" id="Path_26"></path>
      <path d="M814.165,161.354h-17.5c-.276,0-.553-.014-.828,0a2.056,2.056,0,0,1-2.249-2.285c.068-2.482.057-4.968,0-7.45a2.1,2.1,0,0,1,2.278-2.277c2.883.024,5.765.007,8.647.007H830.46c2.19,0,2.788.6,2.788,2.768,0,1.809-.039,3.619.016,5.426a4.96,4.96,0,0,1-.844,2.952q-1.312,2-2.686,3.956-8.478,12.14-16.966,24.274c-.168.241-.313.5-.552.883.5,0,.858,0,1.214,0a40.421,40.421,0,0,1,13.665,2.035c1.728.6,3.389,1.413,5.053,2.187a3.673,3.673,0,0,1,2.187,3.633c-.008,2.606,0,5.213-.006,7.819a4.143,4.143,0,0,1-.011.46,1.871,1.871,0,0,1-2.8,1.565,38.384,38.384,0,0,0-7.348-2.882,40.6,40.6,0,0,0-29.516,2.764c-.082.041-.163.085-.245.126a1.829,1.829,0,0,1-2.812-1.585c-.055-.794-.027-1.594-.025-2.391.005-2.269.005-4.538.028-6.807a8.807,8.807,0,0,1,1.679-5.063q9.426-13.5,18.808-27.026c.525-.755,1.06-1.5,1.583-2.259C813.816,161.967,813.938,161.733,814.165,161.354Z" data-name="Path 27" id="Path_27"></path>
      <path d="M794.566,216.135l-.111.776c.434-.322.912-.371.923-.994,0-.165.369-.36.6-.477a31.159,31.159,0,0,1,5.742-2.2,43.243,43.243,0,0,1,7.675-1.326,46.433,46.433,0,0,1,8.624.076,33.285,33.285,0,0,1,4.239.768,13.739,13.739,0,0,1,2.3.854,2.521,2.521,0,0,1,1.413,2.207,23.939,23.939,0,0,1-.616,8.29,44.371,44.371,0,0,1-3.929,11.245,30.892,30.892,0,0,1-7.168,9.473,4.747,4.747,0,0,1-1.482.871c-.773.275-1.261-.138-1.217-.959a3.465,3.465,0,0,1,.241-.971c1.284-3.508,2.629-6.994,3.846-10.525.617-1.789.976-3.665,1.51-5.485a15.924,15.924,0,0,0,.5-4.8,3.187,3.187,0,0,0-2.5-3.417,15.671,15.671,0,0,0-3.224-.68c-1.706-.153-3.426-.192-5.14-.2a85.61,85.61,0,0,0-9.134.668q-2.329.246-4.656.5a1.19,1.19,0,0,1-1.225-.442,1.349,1.349,0,0,1,.28-1.446,2.7,2.7,0,0,1,.475-.432C793.159,217.08,793.795,216.657,794.566,216.135Zm9.146-3.152.064.182.343-.153-.049-.125Zm13.561-.648.115-.071a.675.675,0,0,0-.1-.084c-.011-.007-.062.027-.061.034A.785.785,0,0,0,817.273,212.335Z" data-name="Path 28" id="Path_28"></path>
    </g>
  </g>
</svg>
