<svg viewBox="0 0 500 122.365" height="122.365" width="500" xmlns:xlink="http://www.w3.org/1999/xlink" xmlns="http://www.w3.org/2000/svg">
  <defs>
    <clipPath id="clip-Big_Commerce">
      <rect height="122.365" width="500"></rect>
    </clipPath>
  </defs>
  <g clip-path="url(#clip-Big_Commerce)" data-name="Big Commerce" id="Big_Commerce">
    <rect fill="#fff" height="122.365" width="500"></rect>
    <g transform="translate(-516.255)" data-name="Group 6" id="Group_6">
      <path d="M611.429,71.593v1.773q0,8.82,0,17.639c0,1.858,0,1.861,1.922,1.862,5.37,0,10.741.028,16.111,0,5.177-.033,8.547-3,9.165-7.987a8.267,8.267,0,0,0-4.21-8.13c-.914-.506-1.107-.851-.106-1.505a7.8,7.8,0,0,0,3.493-8.647,8.282,8.282,0,0,0-7.059-6.2c-1.079-.145-2.168-.214-3.556-.348.68-.515,1.135-.873,1.6-1.215Q657.607,37.8,686.439,16.8a2.759,2.759,0,0,1,1.847-.5c.3.044.662.935.663,1.444Q689,41.42,688.974,65.1a3.63,3.63,0,0,1-.063.41,2.975,2.975,0,0,1-.516-.386c-5.151-6.217-13.677-6.551-19.668-3.939-7.264,3.167-10.824,9.9-9.731,18.232A16.382,16.382,0,0,0,673.027,93.19a18.663,18.663,0,0,0,15.845-4.567,4.41,4.41,0,0,1,.1.6c.005,5.092-.018,10.185.021,15.277.01,1.234-.5,1.583-1.673,1.579-9.815-.031-19.63-.018-29.445-.018H568.849a3.424,3.424,0,0,1-.967-.017,17.438,17.438,0,0,1-1.627-.669c.3-.521.474-1.207.916-1.537,4.077-3.045,8.2-6.029,12.31-9.029Q594.841,83.6,610.2,72.394C610.5,72.179,610.815,71.993,611.429,71.593Zm33.936,4.895c0,5,.02,10-.017,14.994-.007.981.225,1.452,1.31,1.4,1.477-.074,2.962-.056,4.441,0,.929.034,1.2-.359,1.2-1.234q-.027-15.132,0-30.266c0-.922-.388-1.242-1.241-1.231-1.342.016-2.688.062-4.026-.016-1.236-.071-1.714.317-1.7,1.642C645.408,66.676,645.365,71.582,645.365,76.488Z" data-name="Path 29" id="Path_29"></path>
      <path d="M781.351,82.88c2.791-7.189,5.521-14.107,8.14-21.067A2.169,2.169,0,0,1,792,60.1c1.7.115,3.424.053,5.136.018.883-.018,1.25.319,1.248,1.22q-.026,15.208-.008,30.417c0,.821-.3,1.179-1.146,1.143a25.2,25.2,0,0,0-3.193.008c-1.179.1-1.5-.367-1.49-1.5.041-7.176.019-14.352.018-21.527a2.549,2.549,0,0,0-.288-1.39c-.183.441-.373.879-.549,1.323-2.9,7.3-5.826,14.587-8.686,21.9a1.682,1.682,0,0,1-1.832,1.218c-1.012.029-1.346-.451-1.665-1.258q-4.278-10.83-8.607-21.64a4.018,4.018,0,0,0-.894-1.471v1.422c0,7.083-.026,14.167.022,21.25.009,1.237-.283,1.813-1.623,1.676a21.017,21.017,0,0,0-3.053-.01c-.821.036-1.165-.252-1.164-1.111q.026-15.278,0-30.555c0-.862.33-1.132,1.153-1.115,1.851.039,3.707.08,5.554-.013a1.78,1.78,0,0,1,2.014,1.4c2.626,6.859,5.317,13.694,7.99,20.536C781.02,82.244,781.134,82.439,781.351,82.88Z" data-name="Path 30" id="Path_30"></path>
      <path d="M812.449,68.58v1.474q0,10.415,0,20.829c0,2,0,2-1.94,2-.833,0-1.67-.051-2.5.013-.978.075-1.3-.317-1.282-1.278.046-2.684.017-5.369.017-8.054,0-7.266.022-14.533-.024-21.8-.008-1.219.248-1.767,1.606-1.669a41.678,41.678,0,0,0,5.134.005,1.694,1.694,0,0,1,1.911,1.332c2.592,6.773,5.241,13.525,7.875,20.282.113.289.261.565.531,1.146.667-1.681,1.243-3.1,1.795-4.524,2.185-5.643,4.376-11.283,6.527-16.939a1.633,1.633,0,0,1,1.811-1.3c1.847.083,3.7.062,5.552.007.942-.027,1.328.266,1.326,1.254q-.031,15.135.006,30.27c0,.971-.353,1.332-1.311,1.264-.875-.062-1.758-.012-2.638-.014-1.851,0-1.856-.005-1.856-1.807q0-10.623,0-21.245V68.613l-.247-.086c-.168.377-.349.747-.5,1.13q-4.355,10.944-8.686,21.9c-.358.909-.744,1.383-1.853,1.385s-1.394-.536-1.724-1.374q-4.277-10.827-8.609-21.631c-.186-.466-.393-.924-.59-1.385Z" data-name="Path 31" id="Path_31"></path>
      <path d="M879.8,76.376c0-4.951.028-9.9-.021-14.852-.011-1.1.322-1.434,1.428-1.42,4.441.058,8.885-.053,13.325.048,4.1.092,7.575,1.58,9.38,5.512,1.688,3.679,1.64,7.468-.861,10.768a13.062,13.062,0,0,1-4.264,3.134c-1.415.77-1.514.6-.616,2.037,2.011,3.212,4.041,6.412,6.03,9.637a5.254,5.254,0,0,1,.394,1.355,6.5,6.5,0,0,1-1.288.28c-4.825.074-4.822.065-7.245-4.063-1.38-2.352-2.8-4.682-4.141-7.053a1.829,1.829,0,0,0-1.867-1.113,27.162,27.162,0,0,1-3.19,0c-.975-.057-1.288.318-1.274,1.281.046,3.146-.013,6.293.033,9.438.017,1.1-.265,1.656-1.485,1.534a14.274,14.274,0,0,0-2.773,0c-1.2.115-1.609-.283-1.592-1.536C879.84,86.371,879.8,81.373,879.8,76.376Zm5.818-.819c2.813,0,5.484.043,8.153-.011a5.076,5.076,0,0,0,5.236-4.852,4.938,4.938,0,0,0-4.916-5.4c-2.489-.153-4.995-.07-7.492-.021-.331.007-.934.427-.939.664C885.6,69.071,885.618,72.209,885.618,75.557Z" data-name="Path 32" id="Path_32"></path>
      <path d="M758.729,77.018c-.237,7.047-4.049,12.886-10.166,15.323a16.643,16.643,0,0,1-17.738-3.558c-7.127-7.206-6.356-22.656,4.532-27.721,8.86-4.121,19.726,1.009,22.464,10.791A51,51,0,0,1,758.729,77.018ZM731.853,76.5c.161,1.187.229,2.4.5,3.557a10.008,10.008,0,0,0,9.1,8.193,9.8,9.8,0,0,0,10.179-5.9,13.793,13.793,0,0,0-.084-11.813,10.14,10.14,0,0,0-15.484-3.644C733.033,69.342,731.991,72.72,731.853,76.5Z" data-name="Path 33" id="Path_33"></path>
      <path d="M943.738,76.508c0-4.906.034-9.812-.024-14.717-.015-1.218.24-1.71,1.6-1.695,6.478.07,12.958.056,19.437.008,1.141-.009,1.509.309,1.5,1.478-.04,3.647.007,3.647-3.632,3.647-3.842,0-7.684.041-11.524-.023-1.213-.021-1.634.348-1.565,1.581a51.97,51.97,0,0,1,0,5.412c-.056,1.121.358,1.437,1.422,1.428,4.443-.04,8.887.018,13.329-.038,1.222-.016,1.721.269,1.693,1.616-.073,3.514-.009,3.515-3.505,3.515-3.842,0-7.684.038-11.524-.022-1.1-.018-1.459.312-1.416,1.42.081,2.079.083,4.167,0,6.246-.045,1.12.359,1.43,1.426,1.42,4.488-.042,8.979.023,13.467-.042,1.325-.02,1.884.259,1.835,1.747-.109,3.4-.029,3.4-3.446,3.4-5.785,0-11.57-.035-17.355.027-1.3.015-1.767-.31-1.744-1.689C943.786,86.32,943.738,81.414,943.738,76.508Z" data-name="Path 34" id="Path_34"></path>
      <path d="M860.481,60.129c3.286,0,6.572.029,9.858-.019.982-.014,1.267.352,1.29,1.293.091,3.83.115,3.829-3.735,3.829s-7.683.031-11.524-.018c-1.083-.013-1.483.335-1.439,1.435.072,1.849.076,3.7,0,5.553-.044,1.107.357,1.437,1.439,1.426,4.442-.046,8.886.019,13.329-.039,1.194-.015,1.605.309,1.585,1.558-.057,3.571,0,3.572-3.555,3.572-3.8,0-7.591.041-11.385-.023-1.127-.019-1.444.37-1.412,1.44.064,2.08.075,4.167-.008,6.246-.045,1.137.383,1.423,1.449,1.412,4.582-.044,9.165.011,13.746-.04,1.145-.013,1.522.354,1.52,1.506-.006,3.63.035,3.63-3.533,3.63-5.786,0-11.571-.03-17.356.023-1.194.011-1.617-.314-1.612-1.556q.064-14.857,0-29.714c-.005-1.262.441-1.563,1.62-1.538C854,60.174,857.241,60.129,860.481,60.129Z" data-name="Path 35" id="Path_35"></path>
      <path d="M710.523,93.441c-10.03.035-17.52-8.023-16.376-18.757,1.027-9.63,8.222-15.658,17.581-15.061a14.022,14.022,0,0,1,10.864,6.1c.675.924.534,1.439-.482,1.9-1.049.476-2.078,1.507-3.066,1.448-.845-.05-1.619-1.3-2.425-2.015-3.987-3.557-10.563-2.893-14.133,1.427-4.349,5.262-3.382,14.044,1.967,17.873a9.529,9.529,0,0,0,13.389-1.724,1.363,1.363,0,0,1,2.1-.4,19.206,19.206,0,0,0,2.342,1.2c.914.411.968.874.4,1.7A14.149,14.149,0,0,1,710.523,93.441Z" data-name="Path 36" id="Path_36"></path>
      <path d="M927.681,59.464c2.955-.019,6.918,1.959,9.889,5.967.693.935.84,1.564-.425,2.09-1.018.424-2,1.454-2.942,1.383-.859-.065-1.639-1.237-2.445-1.932-5.426-4.679-13.666-2.161-16.139,4.934-1.993,5.718-.005,12.012,4.676,14.8a9.437,9.437,0,0,0,12.675-2.247,1.328,1.328,0,0,1,2-.409,19.647,19.647,0,0,0,2.331,1.22c1.024.431,1.038.96.431,1.795A14.264,14.264,0,0,1,924.3,93.262c-9.431-.714-15.848-8.452-15.106-18.245C909.892,65.8,916.631,59.436,927.681,59.464Z" data-name="Path 37" id="Path_37"></path>
      <path d="M688.916,67.4V74.83h-9.59c-1.156,0-2.314.032-3.468-.01-.928-.034-1.376.295-1.335,1.279.048,1.154.052,2.313,0,3.467-.046.994.416,1.294,1.333,1.278,1.942-.033,3.886.032,5.826-.029,1.095-.034,1.558.253,1.534,1.469-.058,2.949-.18,3.213-3.021,4.286-5.819,2.2-11.85-.549-13.7-6.239-2.035-6.272,1.057-12.621,6.991-14.162A9.143,9.143,0,0,1,683.182,69a1.427,1.427,0,0,0,2.2.33C686.458,68.642,687.626,68.1,688.916,67.4Z" data-name="Path 38" id="Path_38"></path>
      <path d="M623.643,86.772c-1.384,0-2.769-.029-4.152.012-.8.024-1.2-.221-1.183-1.09.036-1.753.021-3.507.007-5.26-.007-.794.288-1.162,1.145-1.151,2.768.036,5.538-.033,8.306.028a3.54,3.54,0,0,1,3.752,3.729c0,2.264-1.325,3.622-3.722,3.721C626.414,86.818,625.028,86.771,623.643,86.772Z" data-name="Path 39" id="Path_39"></path>
      <path d="M623.5,73.2c-1.293,0-2.586-.033-3.877.011-.927.032-1.357-.275-1.318-1.268.058-1.475.048-2.955,0-4.431-.026-.867.244-1.254,1.176-1.239,2.584.043,5.171-.024,7.754.027,2.288.046,3.67,1.393,3.675,3.451s-1.328,3.338-3.676,3.427c-1.244.047-2.492.009-3.738.009Z" data-name="Path 40" id="Path_40"></path>
    </g>
  </g>
</svg>
