<svg xmlns="http://www.w3.org/2000/svg" viewBox="0 0 48 48" role="img" aria-labelledby="google-title">
  <title id="google-title">Google</title>
  <path fill="#4285F4" d="M45.1 24.5c0-1.5-.1-2.7-.4-4H24v7.6h11.8c-.2 1.9-1.5 4.8-4.4 6.7l-.1.5 6.4 5 .4.1c4.5-4.1 7-10.1 7-15.9Z"/>
  <path fill="#34A853" d="M24 46c6.4 0 11.8-2.1 15.7-5.7l-7.5-5.8c-2 1.4-4.7 2.4-8.2 2.4-6.3 0-11.7-4.1-13.6-9.9l-.5.1-6.6 5.1-.1.5C7.1 40.5 15 46 24 46Z"/>
  <path fill="#FBBC05" d="M10.4 27c-.5-1.5-.8-3.1-.8-4.8s.3-3.3.8-4.8l-.1-.5-6.7-5.2-.4.2C1.6 15.2.7 18.6.7 22.2s.9 7 2.5 10.1l7.2-5.3Z"/>
  <path fill="#EA4335" d="M24 7.5c4.5 0 7.6 2 9.4 3.6l6.9-6.7C36.1.5 30.4-1.8 24-1.8 15-1.8 7.1 3.7 3.2 11.8l7.2 5.6C12.3 11.6 17.7 7.5 24 7.5Z"/>
</svg>
