<svg width="1024" height="1024" viewBox="0 0 1024 1024" fill="none" xmlns="http://www.w3.org/2000/svg">
  <defs>
    <linearGradient id="dGradient" x1="225" y1="780" x2="835" y2="255" gradientUnits="userSpaceOnUse">
      <stop offset="0" stop-color="#06A6A6"/>
      <stop offset="0.48" stop-color="#42C95A"/>
      <stop offset="1" stop-color="#D7FF1F"/>
    </linearGradient>
    <linearGradient id="navy" x1="180" y1="220" x2="580" y2="740" gradientUnits="userSpaceOnUse">
      <stop offset="0" stop-color="#132843"/>
      <stop offset="1" stop-color="#071827"/>
    </linearGradient>
  </defs>

  <!-- Outer digital D mark -->
  <path d="M358 220H588C738 220 850 332 850 510C850 688 738 800 588 800H214C214 748 256 706 308 706H586C678 706 752 633 752 510C752 387 678 314 586 314H358V220Z" fill="url(#dGradient)"/>
  <path d="M214 800C214 748 256 706 308 706H586C678 706 752 633 752 510C752 387 678 314 586 314H358V220H588C738 220 850 332 850 510C850 688 738 800 588 800H214Z" stroke="#051423" stroke-width="4" stroke-opacity="0.3"/>

  <!-- i mark -->
  <rect x="222" y="220" width="86" height="86" fill="url(#navy)"/>
  <path d="M222 360H308V684H272C244 684 222 662 222 634V360Z" fill="url(#navy)"/>

  <!-- H mark -->
  <rect x="358" y="360" width="124" height="86" fill="url(#navy)"/>
  <rect x="358" y="520" width="124" height="132" fill="url(#navy)"/>

  <!-- Inner D stem -->
  <path d="M546 360H588C629 360 660 391 660 432V580C660 621 629 652 588 652H546V360Z" fill="url(#navy)"/>
</svg>
