<svg viewBox="0 0 500 122.366" height="122.366" width="500" xmlns:xlink="http://www.w3.org/1999/xlink" xmlns="http://www.w3.org/2000/svg">
  <defs>
    <clipPath id="clip-Opencart">
      <rect height="122.365" width="500"></rect>
    </clipPath>
  </defs>
  <g clip-path="url(#clip-Opencart)" id="Opencart">
    <rect fill="#fff" height="122.365" width="500"></rect>
    <g transform="translate(-516.255 -407.489)" data-name="Group 1" id="Group_1">
      <path d="M600.59,510.582a6.659,6.659,0,0,1-5.409-7.1q.013-11.976,0-23.951,0-12.359,0-24.716a7.081,7.081,0,0,1,1.5-4.664,6.26,6.26,0,0,1,10.26.574c.21.328.4.667.594.982.077-.012.112-.007.125-.022,4.932-5.376,10.968-5.759,17.372-3.554,4.793,1.651,7.915,5.333,10.262,9.679,5.437,10.067,3.3,23.477-4.767,31.071-6.272,5.906-16.434,5.922-22.121,1.362-.064-.052-.141-.088-.361-.222,0,.346-.009.6,0,.859.107,2.6.308,5.2.3,7.8a33.592,33.592,0,0,1-.488,5.736c-.539,3.009-1.932,5.43-5.23,6.164Zm24.882-40.456a12.562,12.562,0,0,0-2.033-7.231,7.969,7.969,0,0,0-13.371.024,13.188,13.188,0,0,0-.041,14.535c2.986,4.98,10.317,4.9,13.463.012A13.089,13.089,0,0,0,625.472,470.126Z" data-name="Path 1" id="Path_1"></path>
      <path d="M802.238,451.808c.153-.245.245-.379.324-.521a6.215,6.215,0,0,1,7.174-3.356,6.613,6.613,0,0,1,4.92,6.279c.022.593.009,1.189.01,1.783q0,14.82,0,29.639a7.081,7.081,0,0,1-1.984,5.25,6.342,6.342,0,0,1-9.727-1.051c-.227-.352-.426-.722-.652-1.108a.865.865,0,0,0-.225.132c-2.959,3.418-6.785,4.735-11.2,4.639-6.657-.144-11.515-3.386-15.107-8.79-6.428-9.671-5.494-23.507,2.261-31.92,4.839-5.249,10.863-6.882,17.767-5.233a11.785,11.785,0,0,1,5.861,3.576C801.851,451.327,802.017,451.546,802.238,451.808Zm-.41,18.758a13.7,13.7,0,0,0-1.05-5.914c-1.473-3.27-3.86-5.24-7.582-5.287-3.769-.048-6.287,1.872-7.7,5.208a14.083,14.083,0,0,0,.27,11.918,7.575,7.575,0,0,0,7.153,4.581,7.671,7.671,0,0,0,7.344-4.275A12.772,12.772,0,0,0,801.828,470.566Z" data-name="Path 2" id="Path_2"></path>
      <path d="M655.557,474.464a5.845,5.845,0,0,0,2.433,4.968A12.692,12.692,0,0,0,666.7,481.6a19.972,19.972,0,0,0,6.7-2.03c1.316-.584,2.647-1.142,3.991-1.659,3.509-1.35,6.593,1.658,6.818,4.582a6.785,6.785,0,0,1-2.774,6.059,20.68,20.68,0,0,1-7.627,3.573,29.887,29.887,0,0,1-15.6.691c-7.8-1.944-12.85-7.031-15.2-14.572-2.219-7.132-1.767-14.2,2.306-20.672,3.626-5.765,8.728-9.454,15.63-10.424a20.612,20.612,0,0,1,22.89,14.61,23.312,23.312,0,0,1,1.031,7.617c-.092,3.157-1.631,4.78-4.792,5.015-.761.057-1.527.075-2.291.075q-10.575.009-21.15,0Zm16.45-8.934c.279-3.231-4.188-8.073-8.838-7.658-3.816.34-7.912,4.383-7.512,7.658Z" data-name="Path 3" id="Path_3"></path>
      <path d="M570.454,446.921c12.8-.045,19.44,9.493,20.952,17.512,1.2,6.356.753,12.556-2.53,18.271q-6.3,10.959-19.039,10.795c-11.969-.175-18.829-9.427-20.376-17.613-1.191-6.295-.7-12.413,2.466-18.122A20.414,20.414,0,0,1,570.454,446.921Zm8.727,23.292a12.975,12.975,0,0,0-2.084-7.4,8.057,8.057,0,0,0-13.268-.046,13.992,13.992,0,0,0,.058,14.988,8.051,8.051,0,0,0,13.262-.219A13.34,13.34,0,0,0,579.181,470.213Z" data-name="Path 4" id="Path_4"></path>
      <path d="M701.084,451.776c2.283-3.347,5.616-4.532,9.424-4.78a20.514,20.514,0,0,1,8.365,1.015c5.13,1.843,7.946,5.586,8.8,10.88a22.314,22.314,0,0,1,.229,3.468c.019,7.73,0,15.46.018,23.189a7.59,7.59,0,0,1-1.505,4.837c-2.421,3.168-8.463,3.351-10.422-1.373a18.936,18.936,0,0,1-1.125-8.091c.123-3.394.355-6.785.506-10.178a21.686,21.686,0,0,0-.908-8.217c-1.424-4.084-4.625-5.25-8.359-4.407a5.744,5.744,0,0,0-3.94,3.463,14.868,14.868,0,0,0-1.291,6.611c.065,4.415.275,8.828.392,13.242a19.666,19.666,0,0,1-.747,6.548c-1.123,3.528-3.488,5.079-6.983,4.589a6.455,6.455,0,0,1-5.233-6.335c-.058-2.008-.019-4.02-.019-6.03q0-12.7,0-25.4a7.512,7.512,0,0,1,.877-3.841,6.7,6.7,0,0,1,11.35-.181C700.7,451.1,700.875,451.417,701.084,451.776Z" data-name="Path 5" id="Path_5"></path>
      <path d="M753.225,446.9a25.4,25.4,0,0,1,9.7,1.838c2.249.974,4.172,2.306,4.905,4.824a6.461,6.461,0,0,1-.511,5.017,4.755,4.755,0,0,1-5.486,2.716c-1.877-.377-3.7-1.037-5.551-1.532-6.381-1.7-11.092,2.224-11.932,8.207a13.6,13.6,0,0,0,1.255,8.424c2.05,3.9,5.448,5.441,9.726,4.369,1.917-.481,3.787-1.153,5.708-1.617,2.915-.705,4.844.131,6.261,2.567a5.832,5.832,0,0,1-.82,6.993,13.311,13.311,0,0,1-6.093,3.546c-6.965,2.178-13.688,1.819-19.742-2.578a22.051,22.051,0,0,1-9.036-15.915,25.539,25.539,0,0,1,2.412-15.2c3.39-6.482,8.563-10.566,15.986-11.47.225-.027.45-.049.676-.062C751.529,446.986,752.377,446.945,753.225,446.9Z" data-name="Path 6" id="Path_6"></path>
      <path d="M857.74,460.281c-1.6-.239-3.074-.362-4.5-.692a4.412,4.412,0,0,1-3.568-3.948,9.378,9.378,0,0,1-.082-2.53c.374-2.907,2.111-4.386,5.413-4.712.869-.086,1.741-.138,2.733-.216,0-.338-.009-.666,0-.993.083-2.6.123-5.2.283-7.8a8.688,8.688,0,0,1,.657-2.533,5.444,5.444,0,0,1,5.495-3.743,5.235,5.235,0,0,1,5.391,3.731,28.94,28.94,0,0,1,.962,5.309,23.171,23.171,0,0,1,.034,2.971c0,.99,0,1.981,0,3.059,1.341.067,2.659.106,3.972.208a15.14,15.14,0,0,1,2.515.352,4.462,4.462,0,0,1,3.438,3.391,7.747,7.747,0,0,1-.086,4.358,4.521,4.521,0,0,1-4.044,3.269c-1.876.232-3.772.31-5.795.466v.906q0,12.232,0,24.466a6.929,6.929,0,0,1-2.225,5.486,6,6,0,0,1-6.42,1.162,6.2,6.2,0,0,1-4.07-5.122,11.589,11.589,0,0,1-.108-1.947q-.011-11.937-.005-23.872Z" data-name="Path 7" id="Path_7"></path>
      <path d="M831.893,451.682c1.044-.93,2.013-1.934,3.121-2.751a8.6,8.6,0,0,1,7.5-1.747,6.652,6.652,0,0,1,4.417,8.694,5.821,5.821,0,0,1-3.8,3.383c-1.893.667-3.774,1.375-5.7,1.943-3.163.933-4.665,3.215-5.229,6.258a18.2,18.2,0,0,0-.235,3.21c-.023,4.954-.012,9.909-.01,14.863a7.5,7.5,0,0,1-1.131,4.281,6.271,6.271,0,0,1-6.728,2.71,6.433,6.433,0,0,1-4.819-5.144,11.214,11.214,0,0,1-.147-1.774c-.009-10.277-.032-20.554.028-30.831a8.5,8.5,0,0,1,.776-3.593c2.069-4.2,8.314-4.644,11.092-.862C831.349,450.753,831.608,451.227,831.893,451.682Z" data-name="Path 8" id="Path_8"></path>
      <path d="M955.131,474.511a51.437,51.437,0,0,1,6.433-8.1c2.732-2.946,5.477-5.882,8.147-8.884a11.1,11.1,0,0,0,1.69-2.728c.993-2.155.485-3.867-1.67-4.881a21.526,21.526,0,0,0-5.215-1.668c-5.929-1.092-11.94-1.014-17.942-1.065-5.717-.049-11.441-.061-17.146-.376a76.124,76.124,0,0,1-20.393-3.675c-7.155-2.427-12.92-6.558-16.624-13.289-.532-.966-1.12-1.9-1.678-2.851a.937.937,0,0,1-.035-.236c1.057.979,2.045,1.926,3.067,2.836a37.247,37.247,0,0,0,17.446,8.417,104.176,104.176,0,0,0,14.377,1.879c12.692.9,25.41.6,38.117.858a64.974,64.974,0,0,1,14.828,1.54,13.7,13.7,0,0,1,2.776,1.018c2.354,1.185,2.949,2.943,1.686,5.262A14.286,14.286,0,0,1,980.528,452c-3.431,3.327-6.914,6.608-10.492,9.778-4.682,4.147-9.473,8.173-14.22,12.248C955.665,474.156,955.489,474.259,955.131,474.511Z" data-name="Path 9" id="Path_9"></path>
      <path d="M921.59,486.668a6.652,6.652,0,1,1-6.633-6.655A6.662,6.662,0,0,1,921.59,486.668Z" data-name="Path 10" id="Path_10"></path>
      <path d="M938.681,486.7a6.654,6.654,0,1,1,6.649,6.631A6.689,6.689,0,0,1,938.681,486.7Z" data-name="Path 11" id="Path_11"></path>
    </g>
  </g>
</svg>
