<svg xmlns="http://www.w3.org/2000/svg" fill="none" viewBox="0 0 24 24" stroke="currentColor" stroke-width="1.5">
  <path stroke-linecap="round" stroke-linejoin="round" d="M20.25 14.15v4.25c0 1.094-.787 2.036-1.872 2.18-2.087.277-4.216.42-6.378.42s-4.291-.143-6.378-.42c-1.085-.144-1.872-1.086-1.872-2.18v-4.25m16.5 0a2.18 2.18 0 0 0 .75-1.661V8.706c0-1.081-.768-2.015-1.837-2.175a48.114 48.114 0 0 0-3.413-.387m4.5 8.006c-.194.049-.394.09-.6.13-1.115.181-2.242.273-3.375.273m-16.5 0a2.18 2.18 0 0 1-.75-1.661V8.706c0-1.081.768-2.015 1.837-2.175a48.114 48.114 0 0 1 3.413-.387m0 0c-.667.015-1.324.048-1.976.113a1.852 1.852 0 0 0-1.623 1.834c-.09.91-.136 1.825-.136 2.742 0 .917.046 1.832.136 2.742.092.979.89 1.743 1.847 1.784a48.773 48.773 0 0 0 3.752.113m0-7.5h.008v.008h-.008v-.008Zm0 7.5h.008v.008h-.008v-.008Zm-5.25-3.75h.008v.008h-.008v-.008Zm10.5 0h.008v.008h-.008v-.008Z" />
</svg>