<svg xmlns="http://www.w3.org/2000/svg" viewBox="0 0 64 28" role="img" aria-labelledby="stripe-title">
  <title id="stripe-title">Stripe</title>
  <path fill="#635BFF" d="M64 14.4c0-4.6-2.2-8.2-6.4-8.2-4.2 0-6.8 3.6-6.8 8.2 0 5.4 3.1 8.2 7.4 8.2 2.1 0 3.7-.5 4.9-1.1v-3.5c-1.2.6-2.6 1-4.3 1-1.7 0-3.2-.6-3.4-2.7h8.5c0-.2.1-1.2.1-1.9Zm-8.7-1.3c0-2 1.2-2.9 2.3-2.9 1.1 0 2.2.9 2.2 2.9h-4.5ZM44 6.2c-1.7 0-2.8.8-3.4 1.4l-.2-1.1h-4v20.8l4.6-1V21c.7.5 1.7 1.1 3 1.1 3.3 0 6.3-2.7 6.3-8.1 0-5-3-7.8-6.3-7.8Zm-1.1 11.8c-.9 0-1.4-.3-1.9-.7v-6c.4-.5 1-.8 1.9-.8 1.5 0 2.5 1.7 2.5 3.7 0 2.2-1 3.8-2.5 3.8ZM30.1 5.2l4.6-1V.5l-4.6 1v3.7Zm0 1.3h4.6v15.8h-4.6V6.5ZM25.2 7.8l-.3-1.3h-4v15.8h4.6V11.6c1.1-1.4 3-1.1 3.6-.9V6.5c-.6-.2-2.8-.6-3.9 1.3ZM16 2.6l-4.5 1v14.5c0 2.7 2 4.7 4.7 4.7 1.5 0 2.6-.3 3.2-.6v-3.7c-.6.2-3.4.9-3.4-1.6v-6.5h3.4V6.5H16V2.6ZM4.7 11.1c0-.7.6-1 1.7-1 1.6 0 3.6.5 5.2 1.3V7.1c-1.7-.7-3.4-.9-5.2-.9C2.1 6.2 0 8.4 0 11.1c0 4.2 5.8 3.5 5.8 5.3 0 .7-.6 1.1-1.9 1.1-1.7 0-3.9-.7-5.6-1.6v4.3c1.9.8 3.8 1.1 5.6 1.1 4.4 0 7.4-2.2 7.4-5 0-4.5-6.6-3.7-6.6-5.2Z"/>
</svg>
