<svg viewBox="0 0 500 122.365" height="122.365" width="500" xmlns:xlink="http://www.w3.org/1999/xlink" xmlns="http://www.w3.org/2000/svg">
  <defs>
    <clipPath id="clip-Volusion">
      <rect height="122.365" width="500"></rect>
    </clipPath>
  </defs>
  <g clip-path="url(#clip-Volusion)" id="Volusion">
    <rect fill="#fff" height="122.365" width="500"></rect>
    <g transform="translate(0 -139.404)" data-name="Group 13" id="Group_13">
      <g data-name="Group 12" id="Group_12">
        <g data-name="Group 10" id="Group_10">
          <g data-name="Group 9" id="Group_9">
            <path d="M183.51,190a4.5,4.5,0,0,1-.023.526q-.027.341-.087.677c-.044.249-.1.526-.176.852s-.175.683-.284,1.09l-11.7,35.232a3.444,3.444,0,0,1-.589,1.2,2.476,2.476,0,0,1-1.227.72,10.288,10.288,0,0,1-2.314.351q-1.463.087-3.819.087-2.314,0-3.776-.108a10.647,10.647,0,0,1-2.291-.372,2.448,2.448,0,0,1-1.2-.72,3.452,3.452,0,0,1-.588-1.157l-11.7-35.232q-.263-.876-.415-1.577a7.6,7.6,0,0,1-.176-1c-.016-.2-.023-.392-.023-.567a1.257,1.257,0,0,1,.241-.765,1.746,1.746,0,0,1,.85-.545,6.958,6.958,0,0,1,1.681-.307q1.069-.085,2.685-.086,1.79,0,2.88.111a9.265,9.265,0,0,1,1.725.3,1.656,1.656,0,0,1,.894.568,3.371,3.371,0,0,1,.436.894l8.862,28.592.263,1.092.261-1.092,8.731-28.592a2.423,2.423,0,0,1,.415-.894,1.777,1.777,0,0,1,.894-.568,8.521,8.521,0,0,1,1.638-.3,26.4,26.4,0,0,1,2.683-.109q1.614,0,2.642.086a6.1,6.1,0,0,1,1.593.307,1.606,1.606,0,0,1,.785.545A1.351,1.351,0,0,1,183.51,190Z" data-name="Path 3" id="Path_3"></path>
            <path d="M228.512,209.118a29.739,29.739,0,0,1-1.31,9.079,19.161,19.161,0,0,1-3.972,7.071,17.671,17.671,0,0,1-6.678,4.584,25.077,25.077,0,0,1-9.385,1.616,25.707,25.707,0,0,1-9.037-1.441,16.242,16.242,0,0,1-6.372-4.191A17.226,17.226,0,0,1,188,219.07a31.539,31.539,0,0,1-1.227-9.167,29.506,29.506,0,0,1,1.333-9.1,19.173,19.173,0,0,1,3.994-7.071,17.837,17.837,0,0,1,6.661-4.557,24.9,24.9,0,0,1,9.362-1.614,26.2,26.2,0,0,1,9.08,1.418,15.869,15.869,0,0,1,6.35,4.168,17.373,17.373,0,0,1,3.732,6.766A31.744,31.744,0,0,1,228.512,209.118Zm-11.306.436a28.485,28.485,0,0,0-.459-5.3,12.5,12.5,0,0,0-1.548-4.207,7.766,7.766,0,0,0-2.9-2.792,9.324,9.324,0,0,0-4.558-1.005,9.655,9.655,0,0,0-4.278.9,7.684,7.684,0,0,0-3.012,2.619,12.535,12.535,0,0,0-1.767,4.147,23.427,23.427,0,0,0-.588,5.523,27.193,27.193,0,0,0,.48,5.3,13.083,13.083,0,0,0,1.551,4.207,7.383,7.383,0,0,0,2.9,2.771,9.527,9.527,0,0,0,4.542.984,9.736,9.736,0,0,0,4.32-.9,7.715,7.715,0,0,0,3.012-2.6,11.981,11.981,0,0,0,1.753-4.126,24.27,24.27,0,0,0,.555-5.527Z" data-name="Path 4" id="Path_4"></path>
            <path d="M248.2,228.978a1.181,1.181,0,0,1-.263.764,1.925,1.925,0,0,1-.894.545,7.755,7.755,0,0,1-1.681.328q-1.052.106-2.662.109a26.276,26.276,0,0,1-2.663-.109,7.749,7.749,0,0,1-1.679-.328,1.928,1.928,0,0,1-.9-.545,1.192,1.192,0,0,1-.261-.764v-57.4a1.278,1.278,0,0,1,.261-.785,1.954,1.954,0,0,1,.9-.589,7.6,7.6,0,0,1,1.679-.372,27.382,27.382,0,0,1,5.325,0,7.609,7.609,0,0,1,1.681.372,1.961,1.961,0,0,1,.894.589,1.272,1.272,0,0,1,.263.785Z" data-name="Path 5" id="Path_5"></path>
            <path d="M296.082,228.979a1.347,1.347,0,0,1-.219.763,1.6,1.6,0,0,1-.765.547,5.943,5.943,0,0,1-1.441.328,19.156,19.156,0,0,1-2.247.108,20.248,20.248,0,0,1-2.335-.108,5.568,5.568,0,0,1-1.418-.328,1.59,1.59,0,0,1-.743-.547,1.332,1.332,0,0,1-.219-.763v-4.5a24.714,24.714,0,0,1-6.57,5.238,14.752,14.752,0,0,1-6.92,1.753,15.512,15.512,0,0,1-6.743-1.31,11.62,11.62,0,0,1-4.408-3.579,14.362,14.362,0,0,1-2.4-5.258,32.488,32.488,0,0,1-.72-7.443V190.045a1.248,1.248,0,0,1,.242-.764,1.76,1.76,0,0,1,.876-.545,7.832,7.832,0,0,1,1.7-.328q1.068-.108,2.642-.109a26.58,26.58,0,0,1,2.662.111,7.812,7.812,0,0,1,1.681.327,1.922,1.922,0,0,1,.894.546,1.19,1.19,0,0,1,.263.764v22a20.984,20.984,0,0,0,.393,4.672,8.141,8.141,0,0,0,1.2,2.771,5.52,5.52,0,0,0,2.05,1.79,6.319,6.319,0,0,0,2.9.633,7.179,7.179,0,0,0,4.206-1.527,25.224,25.224,0,0,0,4.519-4.452V190.049a1.271,1.271,0,0,1,.238-.765,1.788,1.788,0,0,1,.877-.545,7.876,7.876,0,0,1,1.681-.328,32.425,32.425,0,0,1,5.325,0,7.454,7.454,0,0,1,1.66.328,1.929,1.929,0,0,1,.876.545,1.187,1.187,0,0,1,.261.765Z" data-name="Path 6" id="Path_6"></path>
            <path d="M334.541,217.978a13.109,13.109,0,0,1-1.245,5.849,11.658,11.658,0,0,1-3.505,4.235,15.885,15.885,0,0,1-5.369,2.554,25.314,25.314,0,0,1-6.724.852,25.63,25.63,0,0,1-4.168-.328,25.083,25.083,0,0,1-3.557-.831,18.312,18.312,0,0,1-2.618-1.025,6.453,6.453,0,0,1-1.529-.982,3.034,3.034,0,0,1-.741-1.441,11.989,11.989,0,0,1-.262-2.9,18.839,18.839,0,0,1,.087-2.03,5.255,5.255,0,0,1,.262-1.227,1.149,1.149,0,0,1,.437-.61,1.292,1.292,0,0,1,.654-.152,3.281,3.281,0,0,1,1.418.545q.938.546,2.336,1.2a24.643,24.643,0,0,0,3.252,1.227,14.348,14.348,0,0,0,4.206.566,10.4,10.4,0,0,0,2.642-.305,6.693,6.693,0,0,0,2.007-.876,3.7,3.7,0,0,0,1.286-1.441,4.42,4.42,0,0,0,.437-2.009,3.33,3.33,0,0,0-.806-2.247,7.2,7.2,0,0,0-2.139-1.637,24.8,24.8,0,0,0-3.011-1.31q-1.682-.612-3.45-1.353a31.514,31.514,0,0,1-3.448-1.7,13.122,13.122,0,0,1-3.011-2.356,10.685,10.685,0,0,1-2.138-3.362,12.34,12.34,0,0,1-.808-4.715,11.952,11.952,0,0,1,1.092-5.128,11.141,11.141,0,0,1,3.143-3.995,14.882,14.882,0,0,1,5-2.575,22.212,22.212,0,0,1,6.611-.917,23.819,23.819,0,0,1,3.559.261,25.94,25.94,0,0,1,3.121.656,14.822,14.822,0,0,1,2.356.852,7.719,7.719,0,0,1,1.374.785,2.2,2.2,0,0,1,.589.656,2.833,2.833,0,0,1,.261.785c.058.3.108.684.153,1.136s.066,1.012.066,1.679q0,1.178-.066,1.928a4.981,4.981,0,0,1-.218,1.18,1.051,1.051,0,0,1-.414.589,1.189,1.189,0,0,1-.612.152,2.979,2.979,0,0,1-1.226-.457,21.83,21.83,0,0,0-2.074-.984,24.418,24.418,0,0,0-2.88-.981,13.836,13.836,0,0,0-3.734-.459,9.628,9.628,0,0,0-2.574.306,4.914,4.914,0,0,0-1.79.877,3.686,3.686,0,0,0-1.052,1.332,3.883,3.883,0,0,0-.35,1.637,3.263,3.263,0,0,0,.828,2.27,7.592,7.592,0,0,0,2.183,1.614,24.23,24.23,0,0,0,3.078,1.311q1.723.612,3.492,1.333a31.884,31.884,0,0,1,3.491,1.679,13.275,13.275,0,0,1,3.078,2.357,10.911,10.911,0,0,1,2.183,3.33A11.717,11.717,0,0,1,334.541,217.978Z" data-name="Path 7" id="Path_7"></path>
            <path d="M354.621,176.859a6.159,6.159,0,0,1-1.353,4.582,10.7,10.7,0,0,1-10.018.043,5.971,5.971,0,0,1-1.286-4.408,6.306,6.306,0,0,1,1.332-4.6,10.546,10.546,0,0,1,10.017-.044A5.994,5.994,0,0,1,354.621,176.859Zm-.829,52.118a1.193,1.193,0,0,1-.261.763,1.937,1.937,0,0,1-.894.547,7.836,7.836,0,0,1-1.681.327,32.57,32.57,0,0,1-5.325,0,7.812,7.812,0,0,1-1.681-.327,1.937,1.937,0,0,1-.894-.547,1.182,1.182,0,0,1-.261-.763v-38.85a1.186,1.186,0,0,1,.261-.764,2.062,2.062,0,0,1,.894-.568,7.441,7.441,0,0,1,1.681-.371,27.07,27.07,0,0,1,5.325,0,7.453,7.453,0,0,1,1.681.371,2.083,2.083,0,0,1,.894.568,1.2,1.2,0,0,1,.261.764Z" data-name="Path 8" id="Path_8"></path>
            <path d="M404.119,209.118a29.77,29.77,0,0,1-1.31,9.079,19.161,19.161,0,0,1-3.972,7.071,17.66,17.66,0,0,1-6.678,4.584,25.077,25.077,0,0,1-9.385,1.616,25.707,25.707,0,0,1-9.037-1.441,16.25,16.25,0,0,1-6.372-4.191,17.214,17.214,0,0,1-3.755-6.766,31.506,31.506,0,0,1-1.227-9.167,29.471,29.471,0,0,1,1.333-9.1,19.157,19.157,0,0,1,3.993-7.071,17.821,17.821,0,0,1,6.661-4.557,24.876,24.876,0,0,1,9.363-1.614,26.2,26.2,0,0,1,9.08,1.418,15.868,15.868,0,0,1,6.35,4.168,17.39,17.39,0,0,1,3.734,6.766A31.709,31.709,0,0,1,404.119,209.118Zm-11.3.436a28.656,28.656,0,0,0-.459-5.3,12.522,12.522,0,0,0-1.55-4.207,7.755,7.755,0,0,0-2.912-2.805,9.316,9.316,0,0,0-4.557-1,9.634,9.634,0,0,0-4.277.9,7.672,7.672,0,0,0-3.013,2.619,12.56,12.56,0,0,0-1.769,4.147,23.425,23.425,0,0,0-.588,5.523,27.278,27.278,0,0,0,.478,5.3,13.093,13.093,0,0,0,1.55,4.206,7.4,7.4,0,0,0,2.9,2.772,9.526,9.526,0,0,0,4.542.983,9.729,9.729,0,0,0,4.321-.9,7.719,7.719,0,0,0,3.011-2.6,12,12,0,0,0,1.753-4.126,24.39,24.39,0,0,0,.567-5.514Z" data-name="Path 9" id="Path_9"></path>
            <path d="M449.995,228.977a1.179,1.179,0,0,1-.263.764,1.9,1.9,0,0,1-.876.546,7.409,7.409,0,0,1-1.681.327q-1.069.109-2.64.109-1.614,0-2.685-.109a7.436,7.436,0,0,1-1.679-.327,1.913,1.913,0,0,1-.877-.546,1.19,1.19,0,0,1-.261-.764V206.758a18.758,18.758,0,0,0-.415-4.452,8.78,8.78,0,0,0-1.2-2.771,5.335,5.335,0,0,0-2.028-1.79,6.336,6.336,0,0,0-2.9-.635,7.29,7.29,0,0,0-4.235,1.529,22.953,22.953,0,0,0-4.452,4.452v25.886a1.184,1.184,0,0,1-.261.764,1.927,1.927,0,0,1-.894.546,7.813,7.813,0,0,1-1.681.327,32.57,32.57,0,0,1-5.325,0,7.806,7.806,0,0,1-1.679-.327,1.93,1.93,0,0,1-.9-.546,1.184,1.184,0,0,1-.261-.764V190.04a1.348,1.348,0,0,1,.219-.765,1.6,1.6,0,0,1,.785-.545,6.33,6.33,0,0,1,1.462-.328,18.963,18.963,0,0,1,2.247-.11,20.085,20.085,0,0,1,2.314.11,5.294,5.294,0,0,1,1.42.328,1.605,1.605,0,0,1,.72.545,1.34,1.34,0,0,1,.219.765v4.5a24.722,24.722,0,0,1,6.57-5.24,14.834,14.834,0,0,1,6.962-1.752,15.4,15.4,0,0,1,6.7,1.309,11.737,11.737,0,0,1,4.411,3.558,14.458,14.458,0,0,1,2.422,5.259,30.656,30.656,0,0,1,.744,7.246Z" data-name="Path 10" id="Path_10"></path>
          </g>
        </g>
        <g data-name="Group 11" id="Group_11">
          <path style="isolation: isolate" opacity="0.8" d="M126.776,173.774,104.2,210.863a8.719,8.719,0,0,1-14.9,0l-15.066-24.75-7.511-12.34a8.611,8.611,0,0,1-.315-8.5l.026-.061.587-.965a8.613,8.613,0,0,1,7.143-3.724h45.172a8.715,8.715,0,0,1,7.441,13.252Z" data-name="Path 11" id="Path_11"></path>
          <path style="isolation: isolate" opacity="0.8" d="M111.351,199.365l-22.585,37.1a8.721,8.721,0,0,1-14.9,0l-22.585-37.1a8.588,8.588,0,0,1-.386-8.334.125.125,0,0,1,.027-.061l.788-1.308a8.6,8.6,0,0,1,7.02-3.549h45.162a8.719,8.719,0,0,1,7.458,13.252Z" data-name="Path 12" id="Path_12"></path>
          <path style="isolation: isolate" opacity="0.8" d="M51.718,189.663l-.788,1.306A9.418,9.418,0,0,1,51.718,189.663Z" data-name="Path 13" id="Path_13"></path>
          <path d="M50.894,191.031l.036-.062a.12.12,0,0,0-.027.062Z" data-name="Path 14" id="Path_14"></path>
          <path d="M74.233,186.114h-15.5a8.589,8.589,0,0,0-7.02,3.549l14.689-24.391a8.61,8.61,0,0,0,.315,8.5Z" data-name="Path 15" id="Path_15"></path>
        </g>
      </g>
    </g>
  </g>
</svg>
