<svg viewBox="0 0 500 122.366" height="122.366" width="500" xmlns:xlink="http://www.w3.org/1999/xlink" xmlns="http://www.w3.org/2000/svg">
  <defs>
    <clipPath id="clip-Woo_Commerce">
      <rect height="122.365" width="500"></rect>
    </clipPath>
  </defs>
  <g clip-path="url(#clip-Woo_Commerce)" data-name="Woo Commerce" id="Woo_Commerce">
    <rect fill="#fff" height="122.365" width="500"></rect>
    <g transform="translate(0 -407.489)" data-name="Group 8" id="Group_8">
      <path d="M128.566,496.617c1.876,4.636,3.564,8.808,5.481,13.544l-16.315-9.07c-.141-.078-.274-.17-.407-.259a25.563,25.563,0,0,0-15.588-4.345c-15.113.386-30.242.128-45.365.122-8.144,0-13.685-5.243-13.767-13.471q-.21-21.236,0-42.472c.089-9.031,6.877-13.517,14.034-13.482,37.485.181,74.97.082,112.455.086,8.49,0,13.663,5.145,13.672,13.619.015,14.077-.194,28.158.085,42.23A13.379,13.379,0,0,1,169.2,496.7c-12.539-.351-25.1-.09-37.644-.088ZM64.02,471.079c-.356-1.458-.624-2.367-.8-3.294-1.619-8.742-3.262-17.481-4.807-26.236-.621-3.515-2.518-5.211-5.657-4.727-3.509.541-5.008,2.915-4.169,7.5,2,10.949,4.073,21.89,6.4,32.773a56.808,56.808,0,0,0,3.784,11.1c1.3,2.919,3.691,3.185,6.05,1.017a16.369,16.369,0,0,0,3.231-3.862c2.475-4.4,4.768-8.908,7.109-13.385,1.232-2.356,2.417-4.736,3.766-7.385.269.628.381.833.448,1.053,2.572,8.447,6.028,16.423,12.294,22.88,1.591,1.639,3.445,2.743,5.807,1.77,2.384-.982,2.739-3.172,2.867-5.389.368-6.392.355-12.828,1.13-19.169,1.009-8.26,2.31-16.517,6.054-24.14,1.277-2.6.288-5.135-2.274-6.526s-5.2-.831-6.629,1.76a31.366,31.366,0,0,0-3.207,7.487c-1.845,7.571-3.365,15.221-4.964,22.615-.789-2.573-1.8-5.512-2.582-8.509-.892-3.4-1.569-6.865-2.375-10.293-.5-2.105-1.594-3.808-3.9-4.052-2.236-.236-3.774,1.116-4.9,2.908-.6.948-1.084,1.967-1.6,2.962C71.482,456.825,67.877,463.713,64.02,471.079Zm112.145-12.718c-.113-.951-.19-2.565-.512-4.129-1.277-6.2-4.216-11.166-10.693-13.007-6.184-1.757-11.533-.009-15.527,4.962-6.574,8.184-8.555,17.513-5.6,27.6,1.651,5.627,5.494,9.411,11.5,10.373a14.256,14.256,0,0,0,14.09-5.492C174.049,472.951,176.006,466.284,176.165,458.361Zm-36.1.137a39.736,39.736,0,0,0-.6-4.859c-1.361-6-4.353-10.71-10.681-12.438a13.83,13.83,0,0,0-15.332,4.909c-6.406,7.905-8.514,16.983-5.927,26.877,1.53,5.854,5.231,9.965,11.41,11.106a14.134,14.134,0,0,0,14.353-5.328C137.874,473.115,139.9,466.58,140.061,458.5Z" data-name="Path 53" id="Path_53"></path>
      <path d="M282.6,481.839c-7.066.3-7.084.3-8.738-6.109-1.677-6.5-3.315-13-5.365-19.507-.853,8.507-1.707,17.015-2.57,25.618H255.916c1.654-13.083,3.287-26,4.947-39.14,4.261,0,8.337-.05,12.408.071.447.014,1.122.955,1.258,1.563,1.415,6.326,2.741,12.672,4.175,19.4,1.59-7.189,3.1-14.036,4.631-20.942h13.81c1.747,12.976,3.489,25.9,5.254,39.012H291.912c-.894-8.543-1.774-16.962-2.654-25.381l-.414-.077C286.769,464.816,284.7,473.284,282.6,481.839Z" data-name="Path 54" id="Path_54"></path>
      <path d="M308.762,442.8h13.456c1.425,6.863,2.847,13.709,4.367,21.027,1.6-7.275,3.11-14.108,4.632-21.015h13.75c1.755,12.924,3.5,25.787,5.285,38.908H339.764c-.892-8.4-1.792-16.883-2.693-25.361l-.371-.064c-.924,3.755-1.861,7.507-2.766,11.266-.995,4.129-2.018,8.253-2.909,12.4-.331,1.543-1.024,2.047-2.6,2.041-5.074-.018-5.1.054-6.369-4.928-1.744-6.834-3.447-13.679-5.658-20.557-.849,8.334-1.7,16.668-2.569,25.22H303.8C305.461,468.719,307.107,455.8,308.762,442.8Z" data-name="Path 55" id="Path_55"></path>
      <path d="M220.511,461.913c.218-4.323.687-8.53,2.822-12.358,3.586-6.431,9.442-8.363,16.32-7.825,6.451.5,11.273,3.626,13.6,9.833a30.171,30.171,0,0,1,.195,20.742c-2.521,7.41-8.547,11.146-16.4,10.605-8.634-.6-13.808-4.99-15.541-13.389C220.987,467.023,220.832,464.451,220.511,461.913Zm11.175.411.492.052c0,1.6-.049,3.2.019,4.8a13.049,13.049,0,0,0,.429,2.6,5.133,5.133,0,0,0,9.976.615,26.781,26.781,0,0,0-.043-16.072,4.8,4.8,0,0,0-4.792-3.675,4.653,4.653,0,0,0-4.8,3.919C232.364,457.111,232.1,459.735,231.686,462.324Z" data-name="Path 56" id="Path_56"></path>
      <path d="M400.093,464.806l8.192,17.162c-3.56,0-6.766.1-9.957-.074a3.031,3.031,0,0,1-1.992-1.572c-2.234-4.436-4.331-8.941-6.481-13.42a5.12,5.12,0,0,0-1.418-1.937v16.852h-10.51V442.262c6.6.491,13.151.35,19.425,1.608,7.8,1.563,11.185,9.57,7.339,15.994C403.623,461.648,401.817,462.991,400.093,464.806Zm-11.578-14.259v8.939c4.648.074,6.779-1.353,6.733-4.395C395.2,451.792,392.914,450.227,388.515,450.547Z" data-name="Path 57" id="Path_57"></path>
      <path d="M353.328,481.961V442.932h21.209v8.211H364.015v7.091h8.979v8.188h-9v7.121h10.672v8.418Z" data-name="Path 58" id="Path_58"></path>
      <path d="M455.966,458.228v8.087h-9.02v7.172H457.5v8.3H436.383V442.808h21.109v8.32H446.951v7.1Z" data-name="Path 59" id="Path_59"></path>
      <path d="M433.289,451.79c-5.449-1.465-10.477-1.608-13.611,3.736a12.65,12.65,0,0,0,.15,13.726c3.145,5.016,8.08,4.825,13.3,3.5v9.128c-10.416,3.566-24.387-1.738-26.263-16.389-1.447-11.295,3.863-20.267,13.832-22.835,3.531-.91,7.432-.443,11.164-.452.476,0,1.34.9,1.367,1.425C433.365,446.259,433.289,448.9,433.289,451.79Z" data-name="Path 60" id="Path_60"></path>
      <path d="M218.493,451.811c-5.395-1.471-10.252-1.637-13.4,3.452a12.718,12.718,0,0,0-.038,13.931c3.082,5.075,8.056,4.836,13.267,3.6v9.1c-11.046,3.715-24.747-2.344-26.29-16.955-1.182-11.185,4.3-20.017,14.211-22.373,3.481-.827,7.286-.351,10.941-.317.44.005,1.219.955,1.247,1.5C218.567,446.3,218.493,448.869,218.493,451.811Z" data-name="Path 61" id="Path_61"></path>
      <path d="M166.292,460.055c-.464,4.3-1.381,8.22-4.286,11.418-3.531,3.889-6.9,3.255-8.516-1.7-2.172-6.659-.324-12.5,4.274-17.483,2.392-2.593,5.325-2.075,6.727,1.136A44.721,44.721,0,0,1,166.292,460.055Z" data-name="Path 62" id="Path_62"></path>
      <path d="M130.168,459.246c-.52,5.317-1.409,9.676-4.939,12.965-3.069,2.86-5.826,2.261-7.5-1.566-2.416-5.522-.589-14.237,3.834-18.283,2.821-2.581,5.578-2.122,7.05,1.386A40.051,40.051,0,0,1,130.168,459.246Z" data-name="Path 63" id="Path_63"></path>
    </g>
  </g>
</svg>
