<svg xmlns="http://www.w3.org/2000/svg" width="100" height="100" viewBox="0 0 100 100"><defs><style>.cls-1{fill:#0073aa;}</style></defs><g id="Layer_2" data-name="Layer 2"><g id="Layer_1-2" data-name="Layer 1"><path class="cls-1" d="M7.11,50A42.67,42.67,0,0,0,31.33,88.6L10.82,32.54A42.46,42.46,0,0,0,7,50ZM79,47.83A22.56,22.56,0,0,0,75.42,36c-2.18-3.54-4.21-6.53-4.21-10.06a7.42,7.42,0,0,1,7.2-7.62,3.92,3.92,0,0,1,.62,0,42.93,42.93,0,0,0-64.87,8.11c1,0,2,0,2.81.05,4.49,0,11.44-.54,11.44-.54a1.8,1.8,0,0,1,.31,3.59s-2.32.27-4.91.41L39.43,76.45,48.82,48.3,42.14,30c-2.32-.14-4.5-.41-4.5-.41-2.32-.13-2-3.67.27-3.53,0,0,7,.47,11.25.54,4.48,0,11.43-.54,11.43-.54a1.77,1.77,0,0,1,.31,3.53s-2.32.27-4.9.41L71.5,76.1l4.28-14.3c1.76-6,3.13-10.24,3.13-14Zm-28.2,5.92L37.88,91.15a44.82,44.82,0,0,0,12.19,1.72,42.8,42.8,0,0,0,14.24-2.44,3.63,3.63,0,0,1-.3-.59ZM87.64,29.37A33.94,33.94,0,0,1,88,33.79a40.43,40.43,0,0,1-3.26,15.36L71.59,87A42.87,42.87,0,0,0,92.91,50a43.34,43.34,0,0,0-5.25-20.53ZM50,0a50,50,0,1,0,50,50A50.06,50.06,0,0,0,50,0Zm0,97.71A47.69,47.69,0,1,1,97.66,50.05,47.77,47.77,0,0,1,50,97.71Z"/></g></g></svg>